# xmcd CD database file
#
# Track frame offsets:
#	150
#	20475
#	39684
#	60426
#	82338
#	104195
#	125849
#	146751
#	162680
#	184808
#	200493
#	231197
#
# Disc length: 3665 seconds
#
# Revision: 0
# Processed by: cddbd v1.5.2PL0 Copyright (c) Steve Scherf et al.
# Submitted via: CDex 1.51
#
DISCID=bc0e4f0c
DTITLE=Charles E. Jones - Kicked Back
DYEAR=2005
DGENRE=Jazz
TTITLE0=Miss You Carlos
TTITLE1=Run and Play
TTITLE2=Lover For Life
TTITLE3=Kicked Back
TTITLE4=Whisk Away
TTITLE5=Lydia's Samba
TTITLE6=No Perfect Way
TTITLE7=Go Figure
TTITLE8=All Clear
TTITLE9=Chili C
TTITLE10=The Nu Groove
TTITLE11=Data-Video
EXTD=YEAR: 2005
EXTT0=
EXTT1=
EXTT2=
EXTT3=
EXTT4=
EXTT5=
EXTT6=
EXTT7=
EXTT8=
EXTT9=
EXTT10=
EXTT11=
PLAYORDER=
